<svg xmlns="http://www.w3.org/2000/svg" viewBox="0 0 147.18 174.78"><title>Asset 5</title><g id="Layer_2" data-name="Layer 2"><g id="Layer_1-2" data-name="Layer 1"><path d="M125,29.72c-.45,1-.88,1.88-1.31,2.78a14.46,14.46,0,0,1-3.49,2.35,72.45,72.45,0,0,0-20.4-11.7,13.14,13.14,0,0,1,18-10.5C124.51,15.4,151.56-27,125,29.72Z"/><path d="M139.58,124.9l-.11,0a74,74,0,0,0,7.67-35.26A73.08,73.08,0,0,0,99.77,23.15a74.22,74.22,0,0,0-28.32-4.67A73.16,73.16,0,0,0,8,58.45,74.21,74.21,0,0,0,0,94.33a72.86,72.86,0,0,0,21.83,50.12l-2.49,4c-30.64,49.85-1.37,15.64,11.81,3.72a74.07,74.07,0,0,0,44.93,13.41,72.49,72.49,0,0,0,40.85-14h0c8.28-2.44,16.6-4.77,24.84-7.36,1.11-.35,2.6-2.6,2.37-3.62C143,135.53,141.28,130.52,139.58,124.9ZM13.49,93.5A59.79,59.79,0,0,1,45.6,38.91c.12,5,.86,5.2,6.79,5.25.66,0,1.33,0,2,0,14.26.38,10.41-2.49,15.84,11.09,1.93,4.81,1.5,8.58-1.29,13Q63,77.67,57.12,87.09,52.68,76,48.31,65c-1-2.55-2.37-3.37-5.08-3.25-3.82.16-7.65,0-11.47-.06C23,61.58,23,61.58,23,69.75c0,4.27.19,4.45,4.69,4.53h1.39c9.92.35,7.25-1.57,10.95,7.45,1,2.34,5.07,14.31,7.36,20.94q-9.18,14.8-18.33,29.62A59.86,59.86,0,0,1,13.49,93.5Zm15.74,39-.13-.13c3.11-5,6.28-10.09,6.94-11.09C35.61,122,33.62,125.27,29.23,132.45Zm46,19.69a59.69,59.69,0,0,1-31.11-7.8h0q6-9.68,12.17-19.3,4,9.83,7.88,19.68c.84,2.12,1.83,2.7,4.07,2.08,7-2,14.05-3.71,21-5.71a3,3,0,0,0,1.68-2.38c-.8-3.4-2-6.72-3.1-10.45-2.92.83-5.25,1.48-7.56,2.16-5.13,1.52-5.11,1.53-7.08-3.38l-7-17.53L76.21,93.67c1.18-1.85,2.65-3.53,4.57-6.07,1.19,2.63,2,4.22,2.63,5.86,6.71,16.91,13.46,33.79,20,50.74A59.61,59.61,0,0,1,75.19,152.14Zm45.93-23.36c-.83-.95-1.51-2.69-2.62-5.5C106.64,93.09,94.69,62.93,83,32.68a60.07,60.07,0,0,1,38.13,96.1Z"/></g></g></svg>