<svg xmlns="http://www.w3.org/2000/svg" viewBox="0 0 288.55 288.62"><title>Asset 4</title><g id="Layer_2" data-name="Layer 2"><g id="Layer_1-2" data-name="Layer 1"><path d="M196,50.9C191.7,54.06,183.25,64,179.87,62.6a13.12,13.12,0,0,0-10.06,24.24,40.86,40.86,0,0,0,8.49-.69,15.81,15.81,0,0,0,7.48-3.7l.65-1.37c.21-.46.44-.93.66-1.41C200.39,51.31,200.27,47.73,196,50.9Zm0,0C191.7,54.06,183.25,64,179.87,62.6a13.12,13.12,0,0,0-10.06,24.24,40.86,40.86,0,0,0,8.49-.69,15.81,15.81,0,0,0,7.48-3.7l.65-1.37c.21-.46.44-.93.66-1.41C200.39,51.31,200.27,47.73,196,50.9Zm0,0C191.7,54.06,183.25,64,179.87,62.6a13.12,13.12,0,0,0-10.06,24.24,40.86,40.86,0,0,0,8.49-.69,15.81,15.81,0,0,0,7.48-3.7l.65-1.37c.21-.46.44-.93.66-1.41C200.39,51.31,200.27,47.73,196,50.9Zm92.49,88.75A144.65,144.65,0,0,0,65.94,22.84,143.39,143.39,0,0,0,3.6,111.94,147.18,147.18,0,0,0,.06,148.78,143,143,0,0,0,45.34,249.46a145.17,145.17,0,0,0,103.87,39.1A142.42,142.42,0,0,0,249.5,243.24,144.74,144.74,0,0,0,288.48,139.65Zm-58.73,85.68A118,118,0,1,1,262,141,117.26,117.26,0,0,1,229.75,225.33ZM196,50.9C191.7,54.06,183.25,64,179.87,62.6a13.12,13.12,0,0,0-10.06,24.24,40.86,40.86,0,0,0,8.49-.69,15.81,15.81,0,0,0,7.48-3.7l.65-1.37c.21-.46.44-.93.66-1.41C200.39,51.31,200.27,47.73,196,50.9Zm0,0C191.7,54.06,183.25,64,179.87,62.6a13.12,13.12,0,0,0-10.06,24.24,40.86,40.86,0,0,0,8.49-.69,15.81,15.81,0,0,0,7.48-3.7l.65-1.37c.21-.46.44-.93.66-1.41C200.39,51.31,200.27,47.73,196,50.9Z"/><path d="M205.62,192.67a3.88,3.88,0,0,1-1.69,1.56c-5,1.57-10,3-15.07,4.51s-10.08,2.92-15.09,4.44a4.74,4.74,0,0,1-3.69,0,5.6,5.6,0,0,1-2.2-3.11q-5.47-14.21-11.11-28.37t-11.24-28.31c-.33-.82-.69-1.63-1.12-2.56s-.91-2-1.51-3.3c-1,1.27-1.81,2.33-2.56,3.29s-1.42,1.85-2,2.78l-10.09,15.83,3.52,8.76q1.77,4.39,3.53,8.77c1,2.46,1.47,3.68,2.36,4.1s2.16,0,4.72-.72l3.55-1c1.23-.36,2.55-.73,4-1.14.57,1.86,1.15,3.62,1.68,5.35s1,3.4,1.42,5.1a2.1,2.1,0,0,1-.49,1.36,2.65,2.65,0,0,1-1.19,1c-3.48,1-7,1.94-10.5,2.88s-7,1.85-10.52,2.83a3.4,3.4,0,0,1-2.56,0,3.67,3.67,0,0,1-1.51-2.06q-1.95-4.94-3.92-9.86t-4-9.83q-6.1,9.63-12.16,19.31a9.33,9.33,0,0,1-3.19,3.31,7.91,7.91,0,0,1-4.49.92c-2.65-.13-16,14.66-24.16,22.08s-11.08,7.47,7.12-22.14c11.77-19.16,16.15-26.34,16.71-27.34-.23.33-.92,1.42-1.87,2.95-1.86,3-4.73,7.59-7.17,11.51l7.91-12.8,12.47-20.14c-1.14-3.32-2.75-8-4.18-12.08s-2.7-7.69-3.18-8.86c-1.85-4.51-2.11-6.29-3.14-7s-2.85-.29-7.81-.47H89.84c-2.25,0-3.43-.11-4-.7s-.65-1.7-.65-3.83c0-4.08,0-6.13,1.09-7.14s3.28-1,7.64-.94c1.91,0,3.82.07,5.74.1s3.82,0,5.73,0a5.35,5.35,0,0,1,3.18.63,5.16,5.16,0,0,1,1.9,2.62q2.19,5.54,4.39,11.07l4.41,11,5.9-9.43q3-4.71,5.93-9.42a14.56,14.56,0,0,0,2.41-6.35,13.66,13.66,0,0,0-1.12-6.64c-2.72-6.79-3.11-9.47-4.61-10.5s-4.1-.4-11.23-.6h-2c-3.24,0-4.93-.11-5.82-1s-1-2.56-1-5.79c0-6.17-.08-9.26,1.48-10.81s4.69-1.54,11-1.54c2.75,0,5.5.06,8.25.08s5.5,0,8.24-.16a7.53,7.53,0,0,1,4.59.9A7.74,7.74,0,0,1,144,79.74q9.06,23.42,18.26,46.77t18.38,46.72c1.45,3.69,2.17,5.54,3.45,6.16s3.11,0,6.78-1.15c1.66-.54,3.32-1.06,5.09-1.61l5.75-1.79c.85,2.82,1.71,5.48,2.5,8.07s1.51,5.14,2.11,7.7A3.23,3.23,0,0,1,205.62,192.67Z"/></g></g></svg>