<svg xmlns="http://www.w3.org/2000/svg" viewBox="0 0 288.55 288.62"><defs><style>.cls-1{fill:#fff;opacity:0;}</style></defs><title>Asset 6</title><g id="Layer_2" data-name="Layer 2"><g id="Layer_1-2" data-name="Layer 1"><path d="M213.42,197.58c-.6-2.56-1.33-5.1-2.11-7.7s-1.65-5.25-2.5-8.07l-5.75,1.79c-1.77.55-3.43,1.07-5.09,1.61-3.67,1.18-5.51,1.78-6.78,1.15s-2-2.47-3.45-6.16q-9.18-23.37-18.38-46.72T151.1,86.71a7.74,7.74,0,0,0-2.76-3.94,7.53,7.53,0,0,0-4.59-.9c-2.74.16-5.49.18-8.24.16S130,82,127.26,82c-6.28,0-9.42,0-11,1.54s-1.53,4.64-1.48,10.81c0,3.23.11,4.91,1,5.79s2.58,1,5.82,1h2c7.13.2,9.73-.43,11.23.6s1.89,3.71,4.61,10.5a13.66,13.66,0,0,1,1.12,6.64,14.56,14.56,0,0,1-2.41,6.35q-3,4.71-5.93,9.42l-5.9,9.43-4.41-11q-2.2-5.54-4.39-11.07a5.16,5.16,0,0,0-1.9-2.62,5.35,5.35,0,0,0-3.18-.63c-1.91.08-3.82.08-5.73,0s-3.83-.08-5.74-.1c-4.36,0-6.54-.07-7.64.94s-1.09,3.06-1.09,7.14c0,2.13,0,3.24.65,3.83s1.79.66,4,.7h1.39c5,.18,6.77-.22,7.81.47s1.29,2.47,3.14,7c.48,1.17,1.74,4.75,3.18,8.86s3,8.76,4.18,12.08l-12.47,20.14-7,11.3c2.21-3.55,4.61-7.41,6.24-10,1-1.53,1.64-2.62,1.87-3-.56,1-4.94,8.18-16.71,27.34C70.41,235,73.34,235,81.49,227.56s21.51-22.21,24.16-22.08a7.91,7.91,0,0,0,4.49-.92,9.33,9.33,0,0,0,3.19-3.31q6-9.68,12.16-19.31,2,4.92,4,9.83t3.92,9.86a3.67,3.67,0,0,0,1.51,2.06,3.4,3.4,0,0,0,2.56,0c3.5-1,7-1.9,10.52-2.83s7-1.88,10.5-2.88a2.65,2.65,0,0,0,1.19-1,2.1,2.1,0,0,0,.49-1.36c-.4-1.7-.89-3.38-1.42-5.1s-1.11-3.49-1.68-5.35c-1.46.41-2.78.78-4,1.14l-3.55,1c-2.56.76-3.84,1.14-4.72.72s-1.37-1.64-2.36-4.1q-1.76-4.38-3.53-8.77l-3.52-8.76,10.09-15.83a34.3,34.3,0,0,1,2-2.78c.75-1,1.6-2,2.56-3.29.6,1.32,1.09,2.37,1.51,3.3s.79,1.74,1.12,2.56q5.61,14.16,11.24,28.31T175,207.06a5.6,5.6,0,0,0,2.2,3.11,4.74,4.74,0,0,0,3.69,0c5-1.52,10-3,15.09-4.44s10.06-2.94,15.07-4.51a3.88,3.88,0,0,0,1.69-1.56A3.23,3.23,0,0,0,213.42,197.58ZM203.11,57.87C198.82,61,190.37,70.94,187,69.57a13.12,13.12,0,0,0-10.06,24.24,40.85,40.85,0,0,0,8.49-.69,15.81,15.81,0,0,0,7.48-3.7l.65-1.37c.21-.46.44-.93.66-1.41C207.51,58.28,207.39,54.7,203.11,57.87Zm0,0C198.82,61,190.37,70.94,187,69.57a13.12,13.12,0,0,0-10.06,24.24,40.85,40.85,0,0,0,8.49-.69,15.81,15.81,0,0,0,7.48-3.7l.65-1.37c.21-.46.44-.93.66-1.41C207.51,58.28,207.39,54.7,203.11,57.87Zm10.31,139.71c-.6-2.56-1.33-5.1-2.11-7.7s-1.65-5.25-2.5-8.07l-5.75,1.79c-1.77.55-3.43,1.07-5.09,1.61-3.67,1.18-5.51,1.78-6.78,1.15s-2-2.47-3.45-6.16q-9.18-23.37-18.38-46.72T151.1,86.71a7.74,7.74,0,0,0-2.76-3.94,7.53,7.53,0,0,0-4.59-.9c-2.74.16-5.49.18-8.24.16S130,82,127.26,82c-6.28,0-9.42,0-11,1.54s-1.53,4.64-1.48,10.81c0,3.23.11,4.91,1,5.79s2.58,1,5.82,1h2c7.13.2,9.73-.43,11.23.6s1.89,3.71,4.61,10.5a13.66,13.66,0,0,1,1.12,6.64,14.56,14.56,0,0,1-2.41,6.35q-3,4.71-5.93,9.42l-5.9,9.43-4.41-11q-2.2-5.54-4.39-11.07a5.16,5.16,0,0,0-1.9-2.62,5.35,5.35,0,0,0-3.18-.63c-1.91.08-3.82.08-5.73,0s-3.83-.08-5.74-.1c-4.36,0-6.54-.07-7.64.94s-1.09,3.06-1.09,7.14c0,2.13,0,3.24.65,3.83s1.79.66,4,.7h1.39c5,.18,6.77-.22,7.81.47s1.29,2.47,3.14,7c.48,1.17,1.74,4.75,3.18,8.86s3,8.76,4.18,12.08l-12.47,20.14-7,11.3c2.21-3.55,4.61-7.41,6.24-10,1-1.53,1.64-2.62,1.87-3-.56,1-4.94,8.18-16.71,27.34C70.41,235,73.34,235,81.49,227.56s21.51-22.21,24.16-22.08a7.91,7.91,0,0,0,4.49-.92,9.33,9.33,0,0,0,3.19-3.31q6-9.68,12.16-19.31,2,4.92,4,9.83t3.92,9.86a3.67,3.67,0,0,0,1.51,2.06,3.4,3.4,0,0,0,2.56,0c3.5-1,7-1.9,10.52-2.83s7-1.88,10.5-2.88a2.65,2.65,0,0,0,1.19-1,2.1,2.1,0,0,0,.49-1.36c-.4-1.7-.89-3.38-1.42-5.1s-1.11-3.49-1.68-5.35c-1.46.41-2.78.78-4,1.14l-3.55,1c-2.56.76-3.84,1.14-4.72.72s-1.37-1.64-2.36-4.1q-1.76-4.38-3.53-8.77l-3.52-8.76,10.09-15.83a34.3,34.3,0,0,1,2-2.78c.75-1,1.6-2,2.56-3.29.6,1.32,1.09,2.37,1.51,3.3s.79,1.74,1.12,2.56q5.61,14.16,11.24,28.31T175,207.06a5.6,5.6,0,0,0,2.2,3.11,4.74,4.74,0,0,0,3.69,0c5-1.52,10-3,15.09-4.44s10.06-2.94,15.07-4.51a3.88,3.88,0,0,0,1.69-1.56A3.23,3.23,0,0,0,213.42,197.58ZM203.11,57.87C198.82,61,190.37,70.94,187,69.57a13.12,13.12,0,0,0-10.06,24.24,40.85,40.85,0,0,0,8.49-.69,15.81,15.81,0,0,0,7.48-3.7l.65-1.37c.21-.46.44-.93.66-1.41C207.51,58.28,207.39,54.7,203.11,57.87Zm10.31,139.71c-.6-2.56-1.33-5.1-2.11-7.7s-1.65-5.25-2.5-8.07l-5.75,1.79c-1.77.55-3.43,1.07-5.09,1.61-3.67,1.18-5.51,1.78-6.78,1.15s-2-2.47-3.45-6.16q-9.18-23.37-18.38-46.72T151.1,86.71a7.74,7.74,0,0,0-2.76-3.94,7.53,7.53,0,0,0-4.59-.9c-2.74.16-5.49.18-8.24.16S130,82,127.26,82c-6.28,0-9.42,0-11,1.54s-1.53,4.64-1.48,10.81c0,3.23.11,4.91,1,5.79s2.58,1,5.82,1h2c7.13.2,9.73-.43,11.23.6s1.89,3.71,4.61,10.5a13.66,13.66,0,0,1,1.12,6.64,14.56,14.56,0,0,1-2.41,6.35q-3,4.71-5.93,9.42l-5.9,9.43-4.41-11q-2.2-5.54-4.39-11.07a5.16,5.16,0,0,0-1.9-2.62,5.35,5.35,0,0,0-3.18-.63c-1.91.08-3.82.08-5.73,0s-3.83-.08-5.74-.1c-4.36,0-6.54-.07-7.64.94s-1.09,3.06-1.09,7.14c0,2.13,0,3.24.65,3.83s1.79.66,4,.7h1.39c5,.18,6.77-.22,7.81.47s1.29,2.47,3.14,7c.48,1.17,1.74,4.75,3.18,8.86s3,8.76,4.18,12.08l-12.47,20.14-7,11.3c2.21-3.55,4.61-7.41,6.24-10,1-1.53,1.64-2.62,1.87-3-.56,1-4.94,8.18-16.71,27.34C70.41,235,73.34,235,81.49,227.56s21.51-22.21,24.16-22.08a7.91,7.91,0,0,0,4.49-.92,9.33,9.33,0,0,0,3.19-3.31q6-9.68,12.16-19.31,2,4.92,4,9.83t3.92,9.86a3.67,3.67,0,0,0,1.51,2.06,3.4,3.4,0,0,0,2.56,0c3.5-1,7-1.9,10.52-2.83s7-1.88,10.5-2.88a2.65,2.65,0,0,0,1.19-1,2.1,2.1,0,0,0,.49-1.36c-.4-1.7-.89-3.38-1.42-5.1s-1.11-3.49-1.68-5.35c-1.46.41-2.78.78-4,1.14l-3.55,1c-2.56.76-3.84,1.14-4.72.72s-1.37-1.64-2.36-4.1q-1.76-4.38-3.53-8.77l-3.52-8.76,10.09-15.83a34.3,34.3,0,0,1,2-2.78c.75-1,1.6-2,2.56-3.29.6,1.32,1.09,2.37,1.51,3.3s.79,1.74,1.12,2.56q5.61,14.16,11.24,28.31T175,207.06a5.6,5.6,0,0,0,2.2,3.11,4.74,4.74,0,0,0,3.69,0c5-1.52,10-3,15.09-4.44s10.06-2.94,15.07-4.51a3.88,3.88,0,0,0,1.69-1.56A3.23,3.23,0,0,0,213.42,197.58ZM203.11,57.87C198.82,61,190.37,70.94,187,69.57a13.12,13.12,0,0,0-10.06,24.24,40.85,40.85,0,0,0,8.49-.69,15.81,15.81,0,0,0,7.48-3.7l.65-1.37c.21-.46.44-.93.66-1.41C207.51,58.28,207.39,54.7,203.11,57.87Zm0,0C198.82,61,190.37,70.94,187,69.57a13.12,13.12,0,0,0-10.06,24.24,40.85,40.85,0,0,0,8.49-.69,15.81,15.81,0,0,0,7.48-3.7l.65-1.37c.21-.46.44-.93.66-1.41C207.51,58.28,207.39,54.7,203.11,57.87Zm0,0C198.82,61,190.37,70.94,187,69.57a13.12,13.12,0,0,0-10.06,24.24,40.85,40.85,0,0,0,8.49-.69,15.81,15.81,0,0,0,7.48-3.7l.65-1.37c.21-.46.44-.93.66-1.41C207.51,58.28,207.39,54.7,203.11,57.87Zm0,0C198.82,61,190.37,70.94,187,69.57a13.12,13.12,0,0,0-10.06,24.24,40.85,40.85,0,0,0,8.49-.69,15.81,15.81,0,0,0,7.48-3.7l.65-1.37c.21-.46.44-.93.66-1.41C207.51,58.28,207.39,54.7,203.11,57.87Z"/><path class="cls-1" d="M288.49,139.65A144.65,144.65,0,0,0,65.95,22.84a143.39,143.39,0,0,0-62.34,89.1L.31,134.79q-.45,6.9-.24,14A143,143,0,0,0,45.35,249.46a145.17,145.17,0,0,0,103.87,39.1,142.42,142.42,0,0,0,100.29-45.32A144.74,144.74,0,0,0,288.49,139.65Z"/></g></g></svg>