<svg xmlns="http://www.w3.org/2000/svg" viewBox="0 0 551.03 624.89"><defs><style>.cls-1{opacity:0.73;}.cls-2{opacity:0.79;}.cls-3{stroke:#231f20;stroke-linecap:round;stroke-miterlimit:10;}</style></defs><title>Asset 1</title><g id="Layer_2" data-name="Layer 2"><g id="Layer_1-2" data-name="Layer 1"><path d="M551,178.82C369.63,211,188.24,73.71,6.85,101.68Q3.43,90.62,0,79.64c181.39-32.18,362.78,105.11,544.18,77.14Q547.6,167.84,551,178.82Z"/><path class="cls-1" d="M250.4,124.15Q280.19,228,310,332.06c.28-.92.56-1.84.85-2.77v0c.61-2.79,1.33-5.65,2.16-8.53s1.5-5.82,2.46-8.75a47.81,47.81,0,0,1,4-9.52l.07-.24c.25-.77.49-1.44.72-2.11.24-.84.49-1.67.76-2.5.36-1.11.7-2.08,1-3h0c.27-1,.56-2,.89-3h0a66.31,66.31,0,0,1,2-7.82c.42-1.3.83-2.4,1.22-3.34Q305,207.14,283.95,133.4C272.76,130.31,261.58,127.2,250.4,124.15Z"/><path class="cls-2" d="M344.55,356.63c-.53,2.37-1.15,4.73-1.86,7.05a57,57,0,0,1-2.08,5.79A79,79,0,0,1,337.86,382c-1.51,4.85-3,7.57-4.25,8.73A60.78,60.78,0,0,1,332,397.2a30,30,0,0,1-1.92,5c21,73,42.05,145.63,63.08,217.25,11.18,2.13,22.36,4,33.54,5.48C400,535.44,373.17,444,346.39,351.54,345.76,353.5,345.15,355.19,344.55,356.63Z"/><path d="M378.83,263.89c-25,58.42-50.06,115.63-75.08,172.5q-12.95-8.86-25.9-17.81c25-56.75,50.06-113.53,75.08-171.22Q365.89,255.81,378.83,263.89Z"/><path d="M332.83,544.34q-15.48-4-31-8.21c-38.6-134.65-77.21-270-115.81-402.93q15.48,3.51,31,7.5C255.62,274.69,294.22,410.31,332.83,544.34Z"/><path d="M472.16,567.49c-11.18-.4-22.36-1.26-33.54-2.5C400,436.57,361.41,303.61,322.8,169.33c11.18,2.94,22.36,5.76,33.54,8.4C395,311,433.55,442,472.16,567.49Z"/><path class="cls-3" d="M208.31,24.11c-4.46-16.32,3-26.65,16.68-22.8s28.36,20.47,32.82,36.92-3,26.49-16.68,22.52S212.77,40.43,208.31,24.11Z"/></g></g></svg>