<!-- Generator: Adobe Illustrator 21.1.0, SVG Export Plug-In  -->
<svg version="1.1"
	 xmlns="http://www.w3.org/2000/svg" xmlns:xlink="http://www.w3.org/1999/xlink" xmlns:a="http://ns.adobe.com/AdobeSVGViewerExtensions/3.0/"
	 x="0px" y="0px" width="147.2px" height="174.8px" viewBox="0 0 147.2 174.8" style="enable-background:new 0 0 147.2 174.8;"
	 xml:space="preserve">
  <defs>  
        <linearGradient id="logo-gradient" x1="50%" y1="0%" x2="50%" y2="100%" > 
            
            <stop offset="0%" stop-color="#7A5FFF">
                <animate attributeName="stop-color" values="#7A5FFF; #fff; #7A5FFF" dur="4s" repeatCount="indefinite"></animate>
            </stop>

            <stop offset="100%" stop-color="#01FF89">
                <animate attributeName="stop-color" values="#01FF89; #7A5FFF; #01FF89" dur="4s" repeatCount="indefinite"></animate>
            </stop>

        </linearGradient> 
    </defs>
<path d="M125,29.7c-0.4,1-0.9,1.9-1.3,2.8c-1.1,1-2.3,1.8-3.5,2.3c-6.1-4.9-12.9-8.9-20.4-11.7c0.1-1.1,0.4-2.2,0.9-3.3
	c2.8-6.8,10.4-10,17.1-7.2C124.5,15.4,151.6-27,125,29.7z M144.2,140.7c0.2,1-1.3,3.3-2.4,3.6c-8.2,2.6-16.6,4.9-24.8,7.4
	c0,0,0,0,0,0c-11.5,8.4-25.6,13.5-40.8,14c-16.8,0.5-32.3-4.5-44.9-13.4c-13.2,11.9-42.5,46.1-11.8-3.7c0.9-1.4,1.7-2.8,2.5-4
	C8.8,131.7,0.6,114.1,0,94.3c-0.4-13,2.5-25.2,8-35.9c11.8-23.2,35.4-39.2,63.5-40c10-0.3,19.6,1.4,28.3,4.7
	c7.5,2.8,14.3,6.8,20.4,11.7c15.9,12.9,26.3,32.5,27,54.8c0.4,12.7-2.4,24.7-7.7,35.3c0,0,0.1,0,0.1,0
	C141.3,130.5,143,135.5,144.2,140.7z M29.1,132.3c6.1-9.9,12.2-19.8,18.3-29.6c-2.3-6.6-6.4-18.6-7.4-20.9c-3.7-9-1-7.1-10.9-7.5
	c-0.5,0-0.9,0-1.4,0C23.2,74.2,23,74,23,69.8c0-8.2,0-8.2,8.7-8.1c3.8,0,7.7,0.2,11.5,0.1c2.7-0.1,4.1,0.7,5.1,3.2
	c2.9,7.4,5.8,14.7,8.8,22.1C61,80.8,65,74.5,68.9,68.3c2.8-4.4,3.2-8.2,1.3-13c-5.4-13.6-1.6-10.7-15.8-11.1c-0.7,0-1.3,0-2,0
	c-5.9,0-6.7-0.3-6.8-5.2C34.4,44.8,25.4,54,19.8,65.2c-4.3,8.5-6.6,18.1-6.3,28.3C13.9,108.4,19.7,122,29.1,132.3z M36,121.2
	c-0.7,1-3.8,6.1-6.9,11.1c0,0,0.1,0.1,0.1,0.1C33.6,125.3,35.6,122,36,121.2z M103.5,144.2c-6.6-17-13.3-33.8-20-50.7
	c-0.7-1.6-1.4-3.2-2.6-5.9c-1.9,2.5-3.4,4.2-4.6,6.1c-3.4,5.3-6.7,10.5-10.1,15.8c2.3,5.8,4.7,11.7,7,17.5c2,4.9,2,4.9,7.1,3.4
	c2.3-0.7,4.6-1.3,7.6-2.2c1.1,3.7,2.3,7,3.1,10.5c0.2,0.7-0.9,2.1-1.7,2.4c-7,2-14,3.8-21,5.7c-2.2,0.6-3.2,0-4.1-2.1
	c-2.6-6.6-5.2-13.1-7.9-19.7c-4.1,6.4-8.1,12.9-12.2,19.3c0,0,0,0,0,0c9.2,5.2,19.8,8.1,31.1,7.8C85.5,151.9,95.1,149,103.5,144.2z
	 M133.7,90.4C132.9,60.9,111.1,37,83,32.7c11.7,30.2,23.7,60.4,35.5,90.6c1.1,2.8,1.8,4.6,2.6,5.5
	C129.3,118.2,134.1,104.8,133.7,90.4z"/>
</svg>
