<svg version="1.1"
	 xmlns="http://www.w3.org/2000/svg" xmlns:xlink="http://www.w3.org/1999/xlink" xmlns:a="http://ns.adobe.com/AdobeSVGViewerExtensions/3.0/"
	 x="0px" y="0px" width="288.6px" height="288.6px" viewBox="0 0 288.6 288.6" style="enable-background:new 0 0 288.6 288.6;"
	 xml:space="preserve">
<defs>
</defs>
<path d="M196,50.9c-4.3,3.2-12.7,13.1-16.1,11.7c-3.4-1.4-7-1.3-10.1,0c-3.1,1.3-5.7,3.8-7.1,7.2c-1.4,3.3-1.2,6.9,0,9.9
	c1.3,3.1,3.7,5.7,7,7.1c2.9,0,5.8-0.1,8.5-0.7c2.7-0.6,5.2-1.7,7.5-3.7c0.2-0.5,0.4-0.9,0.7-1.4c0.2-0.5,0.4-0.9,0.7-1.4
	C200.4,51.3,200.3,47.7,196,50.9z M196,50.9c-4.3,3.2-12.7,13.1-16.1,11.7c-3.4-1.4-7-1.3-10.1,0c-3.1,1.3-5.7,3.8-7.1,7.2
	c-1.4,3.3-1.2,6.9,0,9.9c1.3,3.1,3.7,5.7,7,7.1c2.9,0,5.8-0.1,8.5-0.7c2.7-0.6,5.2-1.7,7.5-3.7c0.2-0.5,0.4-0.9,0.7-1.4
	c0.2-0.5,0.4-0.9,0.7-1.4C200.4,51.3,200.3,47.7,196,50.9z M196,50.9c-4.3,3.2-12.7,13.1-16.1,11.7c-3.4-1.4-7-1.3-10.1,0
	c-3.1,1.3-5.7,3.8-7.1,7.2c-1.4,3.3-1.2,6.9,0,9.9c1.3,3.1,3.7,5.7,7,7.1c2.9,0,5.8-0.1,8.5-0.7c2.7-0.6,5.2-1.7,7.5-3.7
	c0.2-0.5,0.4-0.9,0.7-1.4c0.2-0.5,0.4-0.9,0.7-1.4C200.4,51.3,200.3,47.7,196,50.9z M288.5,139.6c-1.2-40-18.3-75.5-45.1-100.7
	C216.6,13.8,180.1-1.1,140.1,0.1c-27.5,0.8-52.8,9-74.1,22.8C44.6,36.5,27.2,55.7,15.7,78.4c-5.3,10.5-9.4,21.7-12.1,33.5
	c-2.7,11.8-3.9,24.1-3.5,36.8c1.1,39.9,18.3,75.4,45.3,100.7s63.7,40.3,103.9,39.1c39.7-1.1,75.1-18.4,100.3-45.3
	C274.7,216.3,289.7,179.6,288.5,139.6z M229.8,225.3c-20.8,21.9-49.8,35.9-82.3,36.8c-32.4,0.8-62.2-11.7-84.2-32.5
	c-21.9-20.8-36-50-36.8-82.5c-0.3-10,0.7-19.7,2.8-29c2.1-9.3,5.3-18.2,9.5-26.5c9.4-18.8,23.8-34.8,41.5-46.2
	c17.7-11.4,38.7-18.3,61.3-18.8c32.5-0.9,62.1,11.5,83.9,32.2c21.8,20.7,35.7,49.7,36.6,82.2C262.9,173.5,250.5,203.4,229.8,225.3z
	 M196,50.9c-4.3,3.2-12.7,13.1-16.1,11.7c-3.4-1.4-7-1.3-10.1,0c-3.1,1.3-5.7,3.8-7.1,7.2c-1.4,3.3-1.2,6.9,0,9.9
	c1.3,3.1,3.7,5.7,7,7.1c2.9,0,5.8-0.1,8.5-0.7c2.7-0.6,5.2-1.7,7.5-3.7c0.2-0.5,0.4-0.9,0.7-1.4c0.2-0.5,0.4-0.9,0.7-1.4
	C200.4,51.3,200.3,47.7,196,50.9z M196,50.9c-4.3,3.2-12.7,13.1-16.1,11.7c-3.4-1.4-7-1.3-10.1,0c-3.1,1.3-5.7,3.8-7.1,7.2
	c-1.4,3.3-1.2,6.9,0,9.9c1.3,3.1,3.7,5.7,7,7.1c2.9,0,5.8-0.1,8.5-0.7c2.7-0.6,5.2-1.7,7.5-3.7c0.2-0.5,0.4-0.9,0.7-1.4
	c0.2-0.5,0.4-0.9,0.7-1.4C200.4,51.3,200.3,47.7,196,50.9z M205.6,192.7c-0.5,0.7-1.1,1.4-1.7,1.6c-5,1.6-10,3-15.1,4.5
	c-5,1.5-10.1,2.9-15.1,4.4c-1.6,0.5-2.8,0.5-3.7,0c-0.9-0.5-1.6-1.5-2.2-3.1c-3.6-9.5-7.4-18.9-11.1-28.4
	c-3.7-9.4-7.5-18.9-11.2-28.3c-0.3-0.8-0.7-1.6-1.1-2.6c-0.4-0.9-0.9-2-1.5-3.3c-1,1.3-1.8,2.3-2.6,3.3c-0.8,1-1.4,1.8-2,2.8
	c-3.4,5.3-6.7,10.6-10.1,15.8c1.2,2.9,2.3,5.8,3.5,8.8c1.2,2.9,2.4,5.8,3.5,8.8c1,2.5,1.5,3.7,2.4,4.1c0.9,0.4,2.2,0,4.7-0.7
	c1.2-0.3,2.3-0.7,3.6-1c1.2-0.4,2.5-0.7,4-1.1c0.6,1.9,1.1,3.6,1.7,5.3c0.5,1.7,1,3.4,1.4,5.1c0.1,0.3-0.2,0.9-0.5,1.4
	c-0.3,0.5-0.8,0.9-1.2,1c-3.5,1-7,1.9-10.5,2.9c-3.5,0.9-7,1.8-10.5,2.8c-1.1,0.3-1.9,0.3-2.6,0c-0.6-0.3-1.1-1-1.5-2.1
	c-1.3-3.3-2.6-6.6-3.9-9.9c-1.3-3.3-2.6-6.5-4-9.8c-4.1,6.4-8.1,12.9-12.2,19.3c-1,1.5-2,2.6-3.2,3.3c-1.2,0.7-2.7,1-4.5,0.9
	c-2.7-0.1-16,14.7-24.2,22.1c-8.1,7.4-11.1,7.5,7.1-22.1c11.8-19.2,16.1-26.3,16.7-27.3c-0.2,0.3-0.9,1.4-1.9,2.9
	c-1.9,3-4.7,7.6-7.2,11.5c2.6-4.3,5.3-8.5,7.9-12.8c4.2-6.7,8.3-13.4,12.5-20.1c-1.1-3.3-2.8-8-4.2-12.1c-1.4-4.1-2.7-7.7-3.2-8.9
	c-1.9-4.5-2.1-6.3-3.1-7c-1-0.7-2.9-0.3-7.8-0.5c-0.2,0-0.5,0-0.7,0h-0.7c-2.2,0-3.4-0.1-4-0.7c-0.6-0.6-0.7-1.7-0.7-3.8
	c0-4.1,0-6.1,1.1-7.1c1.1-1,3.3-1,7.6-0.9c1.9,0,3.8,0.1,5.7,0.1c1.9,0,3.8,0,5.7,0c1.3-0.1,2.4,0.1,3.2,0.6
	c0.8,0.5,1.4,1.4,1.9,2.6c1.5,3.7,2.9,7.4,4.4,11.1c1.5,3.7,2.9,7.4,4.4,11c2-3.1,3.9-6.3,5.9-9.4c2-3.1,4-6.3,5.9-9.4
	c1.4-2.2,2.2-4.2,2.4-6.3c0.2-2.1-0.2-4.2-1.1-6.6c-2.7-6.8-3.1-9.5-4.6-10.5c-1.5-1-4.1-0.4-11.2-0.6h-2c-3.2,0-4.9-0.1-5.8-1
	c-0.9-0.9-1-2.6-1-5.8c0-6.2-0.1-9.3,1.5-10.8c1.5-1.5,4.7-1.5,11-1.5c2.8,0,5.5,0.1,8.2,0.1c2.8,0,5.5,0,8.2-0.2
	c2-0.1,3.4,0.1,4.6,0.9c1.2,0.8,2,2,2.8,3.9c6,15.6,12.1,31.2,18.3,46.8c6.1,15.6,12.3,31.1,18.4,46.7c1.5,3.7,2.2,5.5,3.5,6.2
	c1.3,0.6,3.1,0,6.8-1.2c1.7-0.5,3.3-1.1,5.1-1.6c1.8-0.5,3.7-1.1,5.8-1.8c0.9,2.8,1.7,5.5,2.5,8.1c0.8,2.6,1.5,5.1,2.1,7.7
	C206.4,191.1,206.1,191.9,205.6,192.7z"/>
</svg>
